# xmcd CD database file
#
# Track frame offsets:
#	150
#	26800
#	38475
#	47832
#	58247
#	70480
#	75010
#	90260
#	93265
#	106987
#	141870
#	148670
#	160827
#	174505
#	182627
#	193005
#
# Disc length: 2758 seconds
#
# Revision: 4
# Processed by: cddbd v1.5.2PL0 Copyright (c) Steve Scherf et al.
# Submitted via: CDex 1.70beta2
#
DISCID=cf0ac410
DTITLE=Geoge Winston - Forest
DYEAR=1991
DGENRE=Easy Listening
TTITLE0=Tamarack Pines
TTITLE1=Forbidden Forest
TTITLE2=Troubadour
TTITLE3=The Cradle
TTITLE4=Cloudy This Morning
TTITLE5=Last Lullaby Here
TTITLE6=Mon Enfant (My Child)
TTITLE7=Returning
TTITLE8=Graceful Ghost
TTITLE9=Walking in the Air
TTITLE10=Building the Snowman
TTITLE11=The Snowman's Music Box Dance
TTITLE12=Love Song to a Ballerina
TTITLE13=Lights in the Sky
TTITLE14=Japanese Music Box (Itsuki No Komoriuta)
TTITLE15=Night Sky
EXTD=YEAR: 1991
EXTT0=
EXTT1=
EXTT2=
EXTT3=
EXTT4=
EXTT5=
EXTT6=
EXTT7=
EXTT8=
EXTT9=
EXTT10=
EXTT11=
EXTT12=
EXTT13=
EXTT14=
EXTT15=
PLAYORDER=
